# xmcd
#
# Track frame offsets:
#	150
#	13221
#	25912
#	40344
#	50731
#	63462
#	73311
#	95157
#	109706
#	121962
#	138014
#	161237
#
# Disc length: 2365 seconds
#
# Revision: 0
# Processed by: cddbd v1.5.2PL0 Copyright (c) Steve Scherf et al.
# Submitted via: EasyCDDAExtractor 12.0.0.1
#
DISCID=b1093b0c
DTITLE=Bill Bloomer - 1998 - Temple Dogs
DYEAR=1998
DGENRE=Country Blues
TTITLE0=Milltown
TTITLE1=X-mas in St. Peterburg
TTITLE2=St. Susanna
TTITLE3=Starting to like
TTITLE4=Tender loving ways
TTITLE5=If wishe were horses
TTITLE6=Thinkin' bout you
TTITLE7=A little each day
TTITLE8=Good ol' days
TTITLE9=Phenomenon
TTITLE10=Temple dogs
TTITLE11=Yucatan getaway
EXTD=
EXTT0=
EXTT1=
EXTT2=
EXTT3=
EXTT4=
EXTT5=
EXTT6=
EXTT7=
EXTT8=
EXTT9=
EXTT10=
EXTT11=
PLAYORDER=
